<?xml version="1.0" standalone="no"?>
<!DOCTYPE svg PUBLIC "-//W3C//DTD SVG 1.1//EN" "http://www.w3.org/Graphics/SVG/1.1/DTD/svg11.dtd" >
<svg xmlns="http://www.w3.org/2000/svg">
<metadata>
Created by FontForge 20120731 at Thu May 26 18:04:22 2016
 By admin
</metadata>
<defs>
<font id="iconfont" horiz-adv-x="1024" >
  <font-face 
    font-family="iconfont"
    font-weight="500"
    font-stretch="normal"
    units-per-em="1024"
    panose-1="2 0 6 3 0 0 0 0 0 0"
    ascent="896"
    descent="-128"
    x-height="792"
    bbox="34 -67 973 848"
    underline-thickness="50"
    underline-position="-100"
    unicode-range="U+0078-E616"
  />
<missing-glyph horiz-adv-x="374" 
d="M34 0v682h272v-682h-272zM68 34h204v614h-204v-614z" />
    <glyph glyph-name=".notdef" horiz-adv-x="374" 
d="M34 0v682h272v-682h-272zM68 34h204v614h-204v-614z" />
    <glyph glyph-name=".null" horiz-adv-x="0" 
 />
    <glyph glyph-name="nonmarkingreturn" horiz-adv-x="341" 
 />
    <glyph glyph-name="x" unicode="x" horiz-adv-x="1001" 
d="M281 543q-27 -1 -53 -1h-83q-18 0 -36.5 -6t-32.5 -18.5t-23 -32t-9 -45.5v-76h912v41q0 16 -0.5 30t-0.5 18q0 13 -5 29t-17 29.5t-31.5 22.5t-49.5 9h-133v-97h-438v97zM955 310v-52q0 -23 0.5 -52t0.5 -58t-10.5 -47.5t-26 -30t-33 -16t-31.5 -4.5q-14 -1 -29.5 -0.5
t-29.5 0.5h-32l-45 128h-439l-44 -128h-29h-34q-20 0 -45 1q-25 0 -41 9.5t-25.5 23t-13.5 29.5t-4 30v167h911zM163 247q-12 0 -21 -8.5t-9 -21.5t9 -21.5t21 -8.5q13 0 22 8.5t9 21.5t-9 21.5t-22 8.5zM316 123q-8 -26 -14 -48q-5 -19 -10.5 -37t-7.5 -25t-3 -15t1 -14.5
t9.5 -10.5t21.5 -4h37h67h81h80h64h36q23 0 34 12t2 38q-5 13 -9.5 30.5t-9.5 34.5q-5 19 -11 39h-368zM336 498v228q0 11 2.5 23t10 21.5t20.5 15.5t34 6h188q31 0 51.5 -14.5t20.5 -52.5v-227h-327z" />
    <glyph glyph-name="uniE600" unicode="&#xe600;" 
d="M512.5 829q-240.5 0 -343.5 -103.5t-103 -343.5t103 -343.5t343.5 -103.5t343.5 103.5t103 343.5t-103 343.5t-343.5 103.5zM257 525h233v60h-201v39h201v58h44v-58h205v-39h-205v-60h228v-42l-44 -76q-7 5 -30 12q-7 4 -9 4l37 63h-459v39zM331 437l16 32q6 -1 31.5 -8
t44.5 -12q49 -16 74 -23l-17 -37q-69 25 -149 48zM457 361l-13 -34q-81 27 -155 46l16 34q76 -20 152 -46zM778 276h-221l-7 -9q77 -28 228 -88l-23 -39q-117 53 -231 94q-64 -57 -265 -97q-7 21 -23 42q221 34 268 97h-256v41h279q20 40 23 148h43q-2 -102 -18 -148h203
v-41z" />
    <glyph glyph-name="uniE601" unicode="&#xe601;" 
d="M744 830h-458q-31 0 -53.5 -22t-22.5 -54v-741q0 -32 22.5 -54t53.5 -22h458q32 0 54.5 22t22.5 54v741q0 32 -22.5 54t-54.5 22zM286 792h458q16 0 27.5 -11t11.5 -27v-563h-535v563q0 16 11 27t27 11zM744 -25h-458q-16 0 -27 11t-11 27v140h535v-140q0 -16 -11.5 -27
t-27.5 -11zM515.5 115q-20.5 0 -35 -14.5t-14.5 -35t14.5 -35t35 -14.5t35 14.5t14.5 35t-14.5 35t-35 14.5zM425 759h180v-38h-180v38z" />
    <glyph glyph-name="uniE602" unicode="&#xe602;" 
d="M744 830h-458q-31 0 -53.5 -22t-22.5 -54v-741q0 -32 22.5 -54t53.5 -22h458q32 0 54.5 22t22.5 54v741q0 32 -22.5 54t-54.5 22zM286 792h458q16 0 27.5 -11t11.5 -27v-563h-535v563q0 16 11 27t27 11zM744 -25h-458q-16 0 -27 11t-11 27v140h535v-140q0 -16 -11.5 -27
t-27.5 -11zM515.5 115q-20.5 0 -35 -14.5t-14.5 -35t14.5 -35t35 -14.5t35 14.5t14.5 35t-14.5 35t-35 14.5zM425 759h180v-38h-180v38z" />
    <glyph glyph-name="uniE603" unicode="&#xe603;" 
d="M746 830h-458q-32 0 -54.5 -22t-22.5 -54v-600v-141q0 -32 22.5 -54t54.5 -22h458q31 0 53.5 22t22.5 54v141v600q0 32 -22.5 54t-53.5 22zM516.5 16q-20.5 0 -35 14.5t-14.5 35t14.5 35t35 14.5t35 -14.5t14.5 -35t-14.5 -35t-35 -14.5zM249 154v600q0 16 11.5 27
t27.5 11h458q16 0 27 -11t11 -27v-600h-535zM427 759h180v-38h-180v38zM287 704h459v-512h-459v512z" />
    <glyph glyph-name="uniE604" unicode="&#xe604;" 
d="M174 505q-11 -8 -19 -20t-10 -20l-3 -8l-35 -112q31 13 64 13q29 0 48.5 -14t14.5 -42q-3 -21 -21 -34.5t-39 -13.5q-49 0 -85 38l-25 -81q41 -29 102 -29q62 0 100 27q48 35 56 89q9 52 -19 86.5t-78 30.5l-28 -2l12 38h94q14 -2 25 5q5 3 8 9.5t4 10.5l1 5l7 42h-110
q-5 0 -12 -0.5t-24 -5t-28 -12.5zM424 569q-10 -9 -17.5 -23t-8.5 -24l-2 -9l-41 -256h51q11 0 24 10q6 4 10 10t5 10l1 4l46 294q-41 0 -58 -9q-6 -3 -10 -7zM531 360q8 -6 20 -6h8l3 27q-3 0 -6 2q-4 2 -8 8q0 1 -2 5t-4.5 8t-5 6.5t-6 4t-6.5 1.5h-2h-18l13 -39
q5 -11 14 -17zM537 417q8 -5 21 -5h7l3 26l-6 2q-3 3 -7 9q-1 1 -2.5 5t-4 8t-5.5 6.5t-6.5 4t-5.5 1.5h-3h-18l14 -39q4 -12 13 -18zM524 330l-15 -38q-2 -7 -5 -8t-6 -1h-20l-2 -26h31q16 0 20.5 3.5t6 7t4.5 11.5l19 51h-33zM566 353h88l-85 -61q-2 -1 -5 -3t-6.5 -8.5
t-1.5 -13.5q1 -3 5.5 -5t8.5 -2l4 -1h122l3 26h-80q-2 0 -3 2l3 5l63 43q13 10 19 18q3 4 5 10.5t3 10.5v5h-140zM648 478q-17 1 -28 -2q-5 -1 -9.5 -4t-6.5 -6l-2 -2q-7 -9 -21 -9h-6l-2 -24h16q18 0 28 6l5 4l94 -1l3 26h-79zM572 395h140l3 25h-141zM954 433l3 29h-130
l8 14q-21 1 -30 -2q-4 -2 -8 -4.5t-5 -4.5l-2 -3h-41l-4 -29h29l-36 -60l-3 -27h93l-3 -32h-94l-3 -29h93l-3 -27q14 -1 25 4q4 2 7 7.5t3 10.5l1 5h83l3 29h-83l4 32h82l3 28h-82l3 24h-33l-3 -24h-57l37 59h143z" />
    <glyph glyph-name="uniE605" unicode="&#xe605;" 
d="M527 848q-240 0 -343.5 -103.5t-103.5 -343.5t103 -343.5t343.5 -103.5t343.5 103.5t103 343.5t-103 343.5t-343 103.5zM816 71q-6 -5 -14 -5t-13 6l-119 125q-78 -68 -183 -68q-115 0 -197 81.5t-82 197.5t82 197.5t197.5 81.5t197 -81.5t81.5 -197.5q0 -105 -69 -184
l119 -125q6 -6 6 -14t-6 -14zM487.5 649q-99.5 0 -170 -70.5t-70.5 -170t70.5 -170.5t170 -71t170 71t70.5 170.5t-70.5 170t-170 70.5zM461 569q-27 -2 -50 -15q-38 -20 -55 -60q-4 -12 -17 -12q-4 0 -8 2q-7 3 -10 10.5t0 14.5q22 52 71 79q31 17 66 20q8 0 14 -5t6.5 -13
t-4.5 -14t-13 -7zM547 214h-5q-15 0 -19 13q-2 8 1.5 15t11.5 9q42 13 72 45.5t39 74.5q2 8 9 12.5t14.5 2.5t12 -8.5t2.5 -14.5q-12 -53 -49 -93t-89 -56z" />
    <glyph glyph-name="uniE606" unicode="&#xe606;" 
d="M561 625q20 -26 35 -58q22 -47 32 -105q7 -42 8 -86q39 22 94 22q39 0 73 -12q-17 91 -84 157.5t-158 81.5zM461 625q-88 -15 -152.5 -79t-86.5 -159q36 11 59 11q50 0 88 -19q3 -2 7 -4q-8 106 48 199q17 27 37 51zM512 622q-31 -29 -55 -69q-52 -86 -42 -182q8 6 17 10
q33 17 73 17q41 0 76 -16q9 -4 16 -9q0 43 -7 83q-19 108 -78 166zM512 832q-240 0 -343.5 -103.5t-103.5 -343.5t103.5 -343.5t343.5 -103.5t343.5 103.5t103.5 343.5t-103.5 343.5t-343.5 103.5zM836.5 334.5q-11.5 -6.5 -21.5 1.5q-31 24 -85 24q-37 0 -64.5 -12.5
t-34.5 -27.5q-5 -12 -18 -11.5t-17 12.5q-5 12 -25.5 23t-46.5 14v-252q0 -9 6.5 -15.5t15.5 -6.5t16 6.5t7 15.5q0 8 5.5 14t13.5 6t13.5 -6t5.5 -14q0 -25 -18 -42.5t-43 -17.5q-19 0 -34.5 11t-22.5 28q-3 5 -3 12v261q-25 -3 -42 -13.5t-22 -23.5q0 -2 -1 -3l-5 -8
q-5 -9 -16 -9h-3q-13 2 -16 15q-4 17 -32.5 30.5t-67.5 13.5q-29 0 -76 -19q-11 -4 -19.5 2.5t-7.5 17.5q19 133 109 218q45 43 101 65q46 19 98 23v38q0 8 5.5 13.5t13.5 5.5t13.5 -5.5t5.5 -13.5v-37q124 -5 215 -89q95 -89 105 -218l2 -7q2 -13 -9.5 -19.5z" />
    <glyph glyph-name="uniE607" unicode="&#xe607;" 
d="M695 491l-102 -180h203zM215 311h203l-102 180zM316.5 205q39.5 0 70.5 19t40 49h-221q9 -30 40 -49t70.5 -19zM509.5 831q-240.5 0 -343.5 -103.5t-103 -343.5t103 -343.5t343.5 -103.5t343.5 103.5t103 343.5t-103 343.5t-343.5 103.5zM801 202q-44 -36 -106 -36
t-107 36q-46 38 -46 92q0 5 3 10l117 207h-137v-61q0 -8 -6 -13.5t-13.5 -5.5t-13.5 5.5t-6 13.5v61h-137l117 -207q3 -5 3 -10q0 -54 -46 -92q-45 -36 -106.5 -36t-106.5 36q-46 38 -46 92q0 5 3 10l133 235v0v2h1v1h1q0 1 1 2l1 1q1 0 2 1l1 1h1l1 1h1h1l1 1h1h1h1h1h170
v40q0 8 6 13.5t13.5 5.5t13.5 -5.5t6 -13.5v-40h170h1h1h1h1l1 -1h1h1l1 -1h1l1 -1q1 -1 2 -1l1 -1q1 -1 1 -2h1v-1h1v-2h1l132 -235q3 -5 3 -10q0 -54 -46 -92zM694.5 205q39.5 0 70.5 19t40 49h-221q10 -30 40.5 -49t70 -19z" />
    <glyph glyph-name="uniE608" unicode="&#xe608;" 
d="M511.5 124q-20.5 0 -35 -14.5t-14.5 -35t14.5 -35t35 -14.5t35 14.5t14.5 35t-14.5 35t-35 14.5zM816 831h-609q-27 0 -46 -22.5t-19 -54.5v-739q0 -32 19 -54.5t46 -22.5h609q27 0 46 22.5t19 54.5v739q0 32 -19 54.5t-46 22.5zM190 784q8 9 17 9h609q9 0 17 -9
q10 -12 10 -30v-554h-663v554q0 18 10 30zM833 -15q-8 -9 -17 -9h-609q-9 0 -17 9q-10 12 -10 30v147h663v-147q0 -18 -10 -30z" />
    <glyph glyph-name="uniE609" unicode="&#xe609;" 
d="M886 776h-746q-31 0 -52.5 -22.5t-21.5 -54.5v-530q0 -32 21.5 -54.5t52.5 -22.5h359v-118h-138v-38h314v38h-138v118h349q31 0 52.5 22.5t21.5 54.5v530q0 32 -21.5 54.5t-52.5 22.5zM140 738h746q15 0 25.5 -11.5t10.5 -27.5v-427h-818v427q0 16 10.5 27.5t25.5 11.5z
M886 130h-349h-38h-359q-15 0 -25.5 11.5t-10.5 27.5v65h818v-65q0 -16 -10.5 -27.5t-25.5 -11.5z" />
    <glyph glyph-name="uniE60A" unicode="&#xe60a;" 
d="M933 444q25 -25 25 -60.5t-25 -60.5l-362 -361q-25 -25 -60 -25t-60 25l-362 361q-25 25 -25 60.5t25 60.5l362 361q25 25 60 25t60 -25z" />
    <glyph glyph-name="uniE60B" unicode="&#xe60b;" 
d="M948 434l-441 399l-426 -399q-8 -9 -3 -20t17 -11h50v-362q0 -42 30 -72t72 -30h156q16 0 27.5 11.5t11.5 27.5v241q0 7 5 12t12 5h111q8 0 13 -5.5t5 -12.5v-242q0 -15 11 -26t26 -11h158q42 0 72 30t30 72v362l49 -1q12 0 17 11.5t-3 20.5z" />
    <glyph glyph-name="uniE60C" unicode="&#xe60c;" 
d="M960 607.5q-5 5.5 -12.5 5.5t-12.5 -6l-414 -413l-414 413q-5 6 -12.5 6t-13 -5.5t-5.5 -13t6 -12.5l426 -427q6 -5 13 -5t13 5l426 427q5 5 5 12.5t-5 13z" />
    <glyph glyph-name="uniE60D" unicode="&#xe60d;" 
d="M512 836q-91 0 -173.5 -35.5t-142.5 -95.5t-95.5 -142.5t-35.5 -173.5t35.5 -173.5t95.5 -142.5t142.5 -95.5t173.5 -35.5t174 35.5t142.5 95.5t95 142.5t35.5 173.5t-35.5 173.5t-95 142.5t-142.5 95.5t-174 35.5zM752 272q-11 -11 -22 0l-213 212l-222 -223
q-5 -4 -11.5 -4t-10.5 4q-11 11 0 22l234 234q4 4 10.5 4t10.5 -4l224 -223q11 -11 0 -22z" />
    <glyph glyph-name="uniE60E" unicode="&#xe60e;" 
d="M295 820.5q-5 -5.5 -5 -13t5 -12.5l414 -414l-414 -413q-5 -6 -5 -13.5t5 -12.5t12.5 -5t13.5 5l426 427q5 5 5 12.5t-5 12.5l-426 427q-6 5 -13.5 5t-12.5 -5.5z" />
    <glyph glyph-name="uniE60F" unicode="&#xe60f;" 
d="M656 377q0 7 -5 13l-427 426q-5 5 -12.5 5t-13 -5t-5.5 -12.5t6 -12.5l413 -414l-413 -414q-6 -5 -6 -12.5t5.5 -12.5t13 -5t12.5 5l427 426q5 6 5 13zM823 390l-426 426q-6 5 -13 5t-12.5 -5t-5.5 -12.5t5 -12.5l414 -414l-414 -414q-5 -5 -5 -12.5t5.5 -12.5t12.5 -5
t13 5l426 426q5 6 5 13t-5 13z" />
    <glyph glyph-name="uniE610" unicode="&#xe610;" 
d="M306 333q-33 0 -56.5 -23.5t-23.5 -56.5t23.5 -56.5t56.5 -23.5t56.5 23.5t23.5 56.5t-23.5 56.5t-56.5 23.5zM305.5 211q-17.5 0 -29.5 12.5t-12 29.5t12 29.5t29.5 12.5t30 -12.5t12.5 -29.5t-12.5 -29.5t-30 -12.5zM728 333q-33 0 -56.5 -23.5t-23.5 -56.5t23.5 -56.5
t56.5 -23.5t56.5 23.5t23.5 56.5t-23.5 56.5t-56.5 23.5zM728.5 211q-17.5 0 -30 12.5t-12.5 29.5t12.5 29.5t30 12.5t29.5 -12.5t12 -29.5t-12 -29.5t-29.5 -12.5zM798 415l-9 45l-23 125q-8 43 -42 71.5t-78 28.5h-260q-44 0 -78.5 -28.5t-42.5 -71.5l-23 -125l-8 -45h46
h472h46zM303 578q5 30 28.5 49.5t54.5 19.5h260q30 0 53.5 -19.5t29.5 -49.5l23 -125h-472zM960 186l-51 227q-7 31 -34 48l-34 184q-10 56 -53.5 92t-99.5 36h-344q-56 0 -99.5 -36t-53.5 -92l-34 -184q-27 -17 -34 -48l-52 -227q-9 -40 16.5 -72t66.5 -32h39
q5 -39 34.5 -65.5t69.5 -26.5t69.5 26.5t33.5 65.5h233q4 -39 33.5 -65.5t69.5 -26.5t69.5 26.5t33.5 65.5h38q41 0 67 32t16 72zM914.5 138q-14.5 -18 -37.5 -18h-38h-33l-4 -34q-3 -24 -22 -41t-44 -17t-44 17t-22 41l-3 34h-34h-233h-34l-3 -34q-3 -24 -22 -41t-44 -17
t-44 17t-22 41l-4 34h-34h-39q-22 0 -36.5 18t-9.5 40l52 226q4 17 18 26l13 9l3 15l34 185q8 42 41 69t75 27h344q42 0 75 -27t41 -69l34 -185l3 -15l13 -9q14 -9 18 -26l51 -226q6 -22 -8.5 -40z" />
    <glyph glyph-name="uniE611" unicode="&#xe611;" 
d="M960 186l-51 227q-7 31 -34 48l-34 184q-10 56 -53.5 92t-99.5 36h-344q-56 0 -99.5 -36t-53.5 -92l-34 -184q-27 -17 -34 -48l-52 -227q-9 -40 16.5 -72t66.5 -32h39q5 -39 34.5 -65.5t69.5 -26.5t69.5 26.5t33.5 65.5h233q4 -39 33.5 -65.5t69.5 -26.5t69.5 26.5
t33.5 65.5h38q41 0 67 32t16 72zM280 453l23 125q5 30 28.5 49.5t54.5 19.5h260q30 0 53.5 -19.5t29.5 -49.5l23 -125h-472zM305.5 211q-17.5 0 -29.5 12.5t-12 29.5t12 29.5t29.5 12.5t30 -12.5t12.5 -29.5t-12.5 -29.5t-30 -12.5zM728.5 211q-17.5 0 -30 12.5t-12.5 29.5
t12.5 29.5t30 12.5t29.5 -12.5t12 -29.5t-12 -29.5t-29.5 -12.5z" />
    <glyph glyph-name="uniE612" unicode="&#xe612;" 
d="M518 831q-136 0 -193 -55l-8 -8l1 -10q3 -19 47 -75q35 -44 34 -55q-1 -18 -13.5 -39.5t-25 -35t-37.5 -38.5q-32 -34 -47 -51q-112 -139 -110 -268q1 -38 9.5 -72t32 -69.5t60.5 -60.5t98.5 -41t141.5 -16q342 0 348 261q2 130 -107 265q-12 15 -38 43q-24 27 -36.5 42
t-25 38t-13.5 42q0 11 34 55q45 56 47 75l1 10l-7 8q-58 55 -193 55zM508 -25q-173 0 -248 74q-54 54 -56 148q-2 115 102 243q13 16 44 47v1q28 28 42 44t28.5 42t16.5 51q1 18 -8.5 34.5t-33.5 47.5q-21 26 -30 40q-3 5 -6 8q50 38 159 38q107 0 158 -38q-2 -3 -4 -7
q-10 -14 -31 -42q-17 -20 -24 -30t-13 -24t-6 -26q2 -25 16 -52.5t27.5 -44.5t41.5 -48l1 -1q24 -27 35 -40q101 -125 99 -242q-1 -56 -21 -98q-18 -40 -54 -67q-77 -58 -235 -58zM592 426q-9 0 -14 -6l-67 -100l-67 99q-4 6 -14 6q-3 0 -7 -1q-15 -6 -7 -16l67 -98h-65
q-6 0 -10.5 -3.5t-4.5 -8.5q0 -13 15 -13h77v-37h-77q-6 0 -10.5 -3.5t-4.5 -8.5t4.5 -8.5t10.5 -3.5h77v-44q0 -4 4.5 -7.5t10.5 -3.5q8 0 12.5 3.5t4.5 7.5v44h76q7 0 11.5 3.5t4.5 8.5t-4.5 8.5t-11.5 3.5h-76v37h76q7 0 11.5 3.5t4.5 9t-4.5 9t-11.5 3.5h-64l67 99
q3 4 1 8.5t-8 6.5q-3 2 -7 2z" />
    <glyph glyph-name="uniE613" unicode="&#xe613;" 
d="M749 463q-12 15 -38 43q-24 27 -36.5 42t-25 38t-13.5 42q0 11 34 55q45 56 47 75l1 10l-7 8q-58 55 -193 55q-136 0 -193 -55l-8 -8l1 -10q3 -19 47 -75q35 -44 34 -55q-1 -18 -13.5 -39.5t-25 -35t-37.5 -38.5q-32 -34 -47 -51q-112 -139 -110 -268q1 -38 9.5 -72
t32 -69.5t60.5 -60.5t98.5 -41t141.5 -16q342 0 348 261q2 130 -107 265zM603 248q7 0 11.5 -3.5t4.5 -8.5t-4.5 -8.5t-11.5 -3.5h-76v-44q0 -4 -4.5 -7.5t-12.5 -3.5q-6 0 -10.5 3.5t-4.5 7.5v44h-77q-6 0 -10.5 3.5t-4.5 8.5t4.5 8.5t10.5 3.5h77v37h-77q-15 0 -15 13
q0 5 4.5 8.5t10.5 3.5h65l-67 98q-8 10 7 16q14 5 21 -5l67 -99l67 100q3 4 9.5 5.5t11.5 -1.5q6 -2 8 -6.5t-1 -8.5l-67 -99h64q7 0 11.5 -3.5t4.5 -9t-4.5 -9t-11.5 -3.5h-76v-37h76z" />
    <glyph glyph-name="uniE614" unicode="&#xe614;" 
d="M948 434l-441 399l-426 -399q-8 -9 -3 -20t17 -11h50v-362q0 -42 30 -72t72 -30h156q16 0 27.5 11.5t11.5 27.5v241q0 7 5 12t12 5h111q8 0 13 -5.5t5 -12.5v-242q0 -15 11 -26t26 -11h158q42 0 72 30t30 72v362l49 -1q12 0 17 11.5t-3 20.5zM847 440v-37v-362
q0 -26 -19 -45t-45 -19h-157v241q0 23 -16.5 39.5t-39.5 16.5h-111q-23 0 -39 -16t-16 -39v-241q0 -1 -1 -1h-156q-27 0 -45.5 18.5t-18.5 45.5v362v37h-38h-2l365 341l376 -341h-37z" />
    <glyph glyph-name="uniE616" unicode="&#xe616;" 
d="M949 -33l-189 198v1q104 114 104 269q0 108 -53.5 199.5t-145.5 145t-200 53.5t-200 -53.5t-145 -145t-53 -200t53 -200t145 -145t200 -53.5q154 0 268 103l188 -198q6 -6 14 -6t13 5q6 6 6 13.5t-5 13.5zM606 102q-67 -28 -140.5 -28t-140.5 28q-65 28 -115 77.5
t-77 114.5q-28 67 -28 140.5t28 140.5q27 65 77 115t115 77q67 28 140.5 28t140.5 -28q64 -27 114 -77t78 -115q28 -67 28 -140.5t-28 -140.5q-28 -65 -78 -114.5t-114 -77.5z" />
  </font>
</defs>
</svg>
